<svg xmlns="http://www.w3.org/2000/svg" viewBox="0 0 155.12 45.29"><defs><style>.cls-1,.cls-2,.cls-3{fill:#f1f2f2;}.cls-2{font-size:12px;}.cls-2,.cls-3{font-family:Arial-Black, Arial;font-weight:800;}.cls-3{font-size:34px;}</style></defs><title>Asset 81x</title><g id="Layer_2" data-name="Layer 2"><g id="Layer_1-2" data-name="Layer 1"><path class="cls-1" d="M137,0c5.95,2.29,11.31,5.26,14.91,10.91,8.6,13.54-1.09,33.66-17,33.89-29.94.41-59.89.05-89.83,0,.55-2.56,2.75-1.84,4.37-2.11,1.93-.31,4,0,5.57-1.56,25.61-.07,51.22-.07,76.84-.22,11-.06,19-7.74,19.15-18.09.13-10.58-7.91-18.54-19.12-18.66C115.24,4,98.61,4,82,3.93,81,2.78,79.22,2,80,0Z"/><path class="cls-1" d="M0,33l5.52-6.65,9,4.81L30,0H40c-3.57,7.55-7,15.15-10.74,22.64s-7.54,14.67-11.4,22.15L0,34Z"/><path class="cls-1" d="M80,0l2,3.93H43.06L44,0Z"/><path class="cls-1" d="M55,41.14c-1.33,1-2.55,2.21-4,2.77a25.3,25.3,0,0,1-5.24.9l-18,.18H25l-.71-1.39c1.47-.89,2.92-2.52,4.4-2.55C37.44,40.87,46.22,41.07,55,41.14Z"/><text class="cls-2" transform="translate(34.43 19.55)"><tspan xml:space="preserve">  DMCA.com</tspan><tspan x="0" y="14.4">COMPLIANT</tspan></text><text class="cls-3" transform="translate(117.96 34.87)">©</text></g></g></svg>